<svg data-v-fde0c5aa="" xmlns="http://www.w3.org/2000/svg" viewBox="0 0 300 300" class="font"><!----><defs data-v-fde0c5aa=""><!----></defs><rect data-v-fde0c5aa="" fill="transparent" x="0" y="0" width="300px" height="300px" class="logo-background-square"></rect><defs data-v-fde0c5aa=""><linearGradient data-v-fde0c5aa="" gradientTransform="rotate(25)" id="71ed1370-c77b-434d-a105-0b3d9d4d7a71" x1="0%" y1="0%" x2="100%" y2="0%"><stop data-v-fde0c5aa="" offset="0%" stop-color="#4E1A70" stop-opacity="1"></stop><stop data-v-fde0c5aa="" offset="100%" stop-color="#2B4CF2" stop-opacity="1"></stop></linearGradient></defs><g data-v-fde0c5aa="" id="3b7554ec-abc3-4688-8722-e00c1041b9b3" fill="url(#71ed1370-c77b-434d-a105-0b3d9d4d7a71)" transform="matrix(4.275165252896049,0,0,4.275165252896049,35.85308958237737,127.25612118378821)"><path d="M0.97 10.50L0.97 1.36L3.57 1.36L3.57 1.36Q4.28 1.36 4.92 1.50L4.92 1.50L4.92 1.50Q5.56 1.64 6.03 1.97L6.03 1.97L6.03 1.97Q6.50 2.31 6.78 2.86L6.78 2.86L6.78 2.86Q7.06 3.40 7.06 4.21L7.06 4.21L7.06 4.21Q7.06 5.00 6.78 5.54L6.78 5.54L6.78 5.54Q6.50 6.08 6.03 6.41L6.03 6.41L6.03 6.41Q5.57 6.75 4.98 6.89L4.98 6.89L4.98 6.89Q4.38 7.04 3.75 7.04L3.75 7.04L2.90 7.04L2.90 10.50L0.97 10.50ZM2.91 5.49L3.43 5.49L3.43 5.49Q3.78 5.49 4.07 5.43L4.07 5.43L4.07 5.43Q4.37 5.38 4.58 5.23L4.58 5.23L4.58 5.23Q4.80 5.08 4.92 4.83L4.92 4.83L4.92 4.83Q5.04 4.58 5.04 4.20L5.04 4.20L5.04 4.20Q5.04 3.81 4.92 3.56L4.92 3.56L4.92 3.56Q4.80 3.30 4.58 3.16L4.58 3.16L4.58 3.16Q4.37 3.02 4.07 2.97L4.07 2.97L4.07 2.97Q3.78 2.91 3.43 2.91L3.43 2.91L2.91 2.91L2.91 5.49ZM12.47 3.12L12.47 3.12L12.47 3.12Q13.12 3.12 13.58 3.34L13.58 3.34L13.58 3.34Q14.04 3.56 14.34 3.93L14.34 3.93L14.34 3.93Q14.64 4.31 14.78 4.83L14.78 4.83L14.78 4.83Q14.92 5.35 14.92 5.95L14.92 5.95L14.92 10.50L13.05 10.50L13.05 6.58L13.05 6.58Q13.05 5.54 12.77 5.05L12.77 5.05L12.77 5.05Q12.49 4.56 11.80 4.56L11.80 4.56L11.80 4.56Q10.98 4.56 10.58 5.25L10.58 5.25L10.58 5.25Q10.18 5.94 10.18 7.06L10.18 7.06L10.18 10.50L8.30 10.50L8.30 1.55L10.08 1.55L10.08 4.27L10.08 4.27Q10.22 4.12 10.39 3.91L10.39 3.91L10.39 3.91Q10.56 3.71 10.82 3.54L10.82 3.54L10.82 3.54Q11.07 3.36 11.47 3.24L11.47 3.24L11.47 3.24Q11.87 3.12 12.47 3.12ZM20.16 3.12L20.16 3.12L20.16 3.12Q20.72 3.12 21.38 3.29L21.38 3.29L21.38 3.29Q22.04 3.46 22.61 3.88L22.61 3.88L22.61 3.88Q23.18 4.30 23.57 5.03L23.57 5.03L23.57 5.03Q23.95 5.75 23.95 6.89L23.95 6.89L23.95 6.89Q23.95 8.02 23.57 8.75L23.57 8.75L23.57 8.75Q23.18 9.48 22.61 9.90L22.61 9.90L22.61 9.90Q22.04 10.32 21.38 10.49L21.38 10.49L21.38 10.49Q20.72 10.65 20.16 10.65L20.16 10.65L20.16 10.65Q19.60 10.65 18.94 10.49L18.94 10.49L18.94 10.49Q18.28 10.32 17.72 9.90L17.72 9.90L17.72 9.90Q17.15 9.48 16.77 8.75L16.77 8.75L16.77 8.75Q16.39 8.02 16.39 6.89L16.39 6.89L16.39 6.89Q16.39 5.75 16.77 5.03L16.77 5.03L16.77 5.03Q17.15 4.30 17.72 3.88L17.72 3.88L17.72 3.88Q18.28 3.46 18.94 3.29L18.94 3.29L18.94 3.29Q19.60 3.12 20.16 3.12ZM20.16 9.25L20.16 9.25L20.16 9.25Q20.94 9.25 21.47 8.64L21.47 8.64L21.47 8.64Q21.99 8.02 21.99 6.89L21.99 6.89L21.99 6.89Q21.99 5.75 21.47 5.14L21.47 5.14L21.47 5.14Q20.94 4.54 20.16 4.54L20.16 4.54L20.16 4.54Q19.40 4.54 18.89 5.14L18.89 5.14L18.89 5.14Q18.37 5.75 18.37 6.89L18.37 6.89L18.37 6.89Q18.37 7.45 18.51 7.89L18.51 7.89L18.51 7.89Q18.65 8.33 18.89 8.63L18.89 8.63L18.89 8.63Q19.12 8.93 19.45 9.09L19.45 9.09L19.45 9.09Q19.78 9.25 20.16 9.25ZM28.91 10.65L28.91 10.65L28.91 10.65Q27.75 10.65 26.99 10.35L26.99 10.35L26.99 10.35Q26.24 10.04 25.78 9.52L25.78 9.52L25.78 9.52Q25.33 9.00 25.14 8.32L25.14 8.32L25.14 8.32Q24.96 7.64 24.96 6.89L24.96 6.89L24.96 6.89Q24.96 6.22 25.14 5.54L25.14 5.54L25.14 5.54Q25.33 4.87 25.72 4.33L25.72 4.33L25.72 4.33Q26.12 3.79 26.77 3.46L26.77 3.46L26.77 3.46Q27.41 3.12 28.34 3.12L28.34 3.12L28.34 3.12Q29.32 3.12 29.97 3.46L29.97 3.46L29.97 3.46Q30.62 3.79 31.01 4.33L31.01 4.33L31.01 4.33Q31.40 4.87 31.56 5.54L31.56 5.54L31.56 5.54Q31.72 6.22 31.72 6.89L31.72 6.89L31.72 7.52L26.77 7.52L26.77 7.52Q26.77 8.27 27.31 8.76L27.31 8.76L27.31 8.76Q27.85 9.25 28.78 9.25L28.78 9.25L28.78 9.25Q29.32 9.25 29.76 9.14L29.76 9.14L29.76 9.14Q30.21 9.03 30.53 8.89L30.53 8.89L30.53 8.89Q30.90 8.74 31.21 8.53L31.21 8.53L31.21 10.09L31.21 10.09Q31.21 10.11 31.02 10.19L31.02 10.19L31.02 10.19Q30.84 10.28 30.53 10.38L30.53 10.38L30.53 10.38Q30.23 10.49 29.81 10.57L29.81 10.57L29.81 10.57Q29.39 10.65 28.91 10.65ZM26.77 6.19L29.95 6.19L29.95 6.19Q29.95 5.95 29.88 5.66L29.88 5.66L29.88 5.66Q29.82 5.38 29.64 5.12L29.64 5.12L29.64 5.12Q29.47 4.87 29.15 4.70L29.15 4.70L29.15 4.70Q28.84 4.54 28.34 4.54L28.34 4.54L28.34 4.54Q27.90 4.54 27.60 4.70L27.60 4.70L27.60 4.70Q27.30 4.87 27.12 5.12L27.12 5.12L27.12 5.12Q26.94 5.38 26.85 5.66L26.85 5.66L26.85 5.66Q26.77 5.95 26.77 6.19L26.77 6.19ZM37.46 3.12L37.46 3.12L37.46 3.12Q38.11 3.12 38.57 3.34L38.57 3.34L38.57 3.34Q39.03 3.56 39.33 3.93L39.33 3.93L39.33 3.93Q39.63 4.31 39.77 4.83L39.77 4.83L39.77 4.83Q39.91 5.35 39.91 5.95L39.91 5.95L39.91 10.50L38.04 10.50L38.04 6.58L38.04 6.58Q38.04 5.54 37.76 5.05L37.76 5.05L37.76 5.05Q37.48 4.56 36.79 4.56L36.79 4.56L36.79 4.56Q35.97 4.56 35.57 5.25L35.57 5.25L35.57 5.25Q35.17 5.94 35.17 7.06L35.17 7.06L35.17 10.50L33.29 10.50L33.29 3.29L34.69 3.29L35.07 4.27L35.07 4.27Q35.21 4.12 35.38 3.91L35.38 3.91L35.38 3.91Q35.55 3.71 35.80 3.54L35.80 3.54L35.80 3.54Q36.06 3.36 36.46 3.24L36.46 3.24L36.46 3.24Q36.86 3.12 37.46 3.12ZM43.71 10.50L41.82 10.50L41.82 3.29L43.71 3.29L43.71 10.50ZM43.81 1.02L43.81 1.02L43.81 1.02Q43.81 1.47 43.50 1.78L43.50 1.78L43.50 1.78Q43.19 2.09 42.76 2.09L42.76 2.09L42.76 2.09Q42.31 2.09 42 1.78L42 1.78L42 1.78Q41.69 1.47 41.69 1.02L41.69 1.02L41.69 1.02Q41.69 0.59 42 0.29L42 0.29L42 0.29Q42.31-0.01 42.76-0.01L42.76-0.01L42.76-0.01Q43.19-0.01 43.50 0.29L43.50 0.29L43.50 0.29Q43.81 0.59 43.81 1.02ZM44.90 10.50L47.29 6.73L44.93 3.29L47.17 3.29L48.58 5.60L48.58 5.60Q48.58 5.60 48.64 5.50L48.64 5.50L48.64 5.50Q48.69 5.40 48.79 5.24L48.79 5.24L48.79 5.24Q48.89 5.08 49.01 4.87L49.01 4.87L49.01 4.87Q49.14 4.66 49.27 4.45L49.27 4.45L49.27 4.45Q49.57 3.95 49.97 3.29L49.97 3.29L51.97 3.29L49.81 6.73L52.43 10.50L50.12 10.50L48.58 7.80L48.58 7.80Q48.58 7.80 48.51 7.92L48.51 7.92L48.51 7.92Q48.44 8.04 48.34 8.22L48.34 8.22L48.34 8.22Q48.23 8.41 48.09 8.66L48.09 8.66L48.09 8.66Q47.95 8.90 47.81 9.16L47.81 9.16L47.81 9.16Q47.46 9.74 47.04 10.50L47.04 10.50L44.90 10.50Z"></path></g><!----><!----></svg>